<svg xmlns="http://www.w3.org/2000/svg" viewBox="0 0 512 512">
  <!-- Full-bleed version for Android's adaptive icons: the pick sits inside the 80% safe zone. -->
  <rect width="512" height="512" fill="#0d1117"/>
  <g transform="translate(256 256) scale(0.72) translate(-256 -256)">
    <path d="M256 78c96 0 166 68 166 156 0 96-84 200-166 200S90 330 90 234c0-88 70-156 166-156z" fill="#8a5a17"/>
    <path d="M256 78c96 0 166 68 166 156 0 96-84 200-166 200S90 330 90 234c0-88 70-156 166-156z" fill="none" stroke="#d29a3a" stroke-width="14"/>
    <circle cx="256" cy="222" r="52" fill="#0d1117"/>
    <circle cx="256" cy="222" r="52" fill="none" stroke="#f1f5f9" stroke-width="12"/>
  </g>
</svg>
